<!DOCTYPE svg PUBLIC "-//W3C//DTD SVG 1.1//EN" "http://www.w3.org/Graphics/SVG/1.1/DTD/svg11.dtd">
<!-- Uploaded to: SVG Repo, www.svgrepo.com, Transformed by: SVG Repo Mixer Tools -->
<svg fill="#000000" version="1.1" id="Capa_1" xmlns="http://www.w3.org/2000/svg" xmlns:xlink="http://www.w3.org/1999/xlink" width="187px" height="187px" viewBox="-77.08 -77.08 635.88 635.88" xml:space="preserve" transform="rotate(90)matrix(-1, 0, 0, 1, 0, 0)">
<g id="SVGRepo_bgCarrier" stroke-width="0">
<path transform="translate(-77.08, -77.08), scale(19.87125)" d="M16,30.35200304603752C19.038048627576075,30.540202848155193,22.313711794242312,29.819484088678955,24.506999953066618,27.708880932850015C26.601523357244236,25.69331918870394,26.56328167311439,22.469784997773054,27.149606490131234,19.622726753889882C27.662747487560797,17.131032279077473,28.766477397802085,14.508268889786677,27.7013173466461,12.198011522202913C26.666608164016882,9.953799950541498,23.60227488310743,9.708063818435175,21.799204300206302,8.018080048077364C19.57351191886143,5.9319809025686965,19.048137597070784,1.350478443788777,16.000000000000004,1.2305892841780874C12.991913704855165,1.112275419899811,12.228022586657579,5.690198175302928,9.859605844210417,7.54847249940436C7.635469370951945,9.293543638060159,3.9633425381803695,9.151566182917364,2.6885382923439014,11.674843905532414C1.3918308033126345,14.241475708420541,2.5508781355738663,17.34859453729909,3.5452313408181944,20.046799649392472C4.506409493418997,22.65498333231499,6.084162137039689,24.928303363383474,8.225778136742264,26.70029841831966C10.486981420435482,28.57124121920755,13.070744224729777,30.170542699335385,16,30.35200304603752" fill="#8cd9f2" strokewidth="0"/>
</g>
<g id="SVGRepo_tracerCarrier" stroke-linecap="round" stroke-linejoin="round" stroke="#CCCCCC" stroke-width="0.963442"/>
<g id="SVGRepo_iconCarrier"> <g> <g> <path d="M399.494,209.312L146.627,10.473c-5.532-3.88-15.41-8.072-22.118-8.917C102.771-1.18,59.332-3.352,59.332,23v435.708 c0,26.353,43.415,24.192,65.147,21.463c6.707-0.845,16.573-5.036,22.111-8.917l252.903-198.856 C430.021,254.979,430.021,226.735,399.494,209.312z"/> </g> </g> </g>
</svg>